<?xml version="1.0" encoding="utf-8"?>
<!-- Generator: Adobe Illustrator 28.0.0, SVG Export Plug-In . SVG Version: 6.00 Build 0)  -->
<svg version="1.1" id="Layer_1" xmlns="http://www.w3.org/2000/svg" xmlns:xlink="http://www.w3.org/1999/xlink" x="0px" y="0px"
	 viewBox="0 0 300 300" style="enable-background:new 0 0 300 300;" xml:space="preserve">
<style type="text/css">
	.st0{fill:#CCDDE8;}
</style>
<g>
	<path class="st0" d="M161.16,95.55c6.08,17.08,11.25,31.75,16.54,46.39c5.12,14.19,10.48,28.3,15.52,42.51
		c4.6,12.98,2.03,17.33-11.23,16.36c-11.01-0.81-14.8,2.1-14.09,13.71c1.11,17.99,0.15,36.1,0.35,54.16
		c0.1,8.69-2.54,15.9-12.08,15.63c-8.83-0.25-11.3-7.37-11.23-15.55c0.16-20.23,0.1-40.46,0-60.68c-0.02-3.24,1.61-7.51-4.53-7.7
		c-6.21-0.19-5.81,3.69-5.8,7.82c0.04,20.23-0.13,40.46,0.09,60.68c0.09,8.15-1.89,15.33-11.01,15.51
		c-9.7,0.2-11.91-6.86-11.74-15.66c0.38-19.86-0.04-39.73,0.22-59.6c0.07-5.49-0.35-8.95-7.28-8.17
		c-22.5,2.52-23.32-3.82-16.08-23.31c8.88-23.9,17.14-48.03,25.63-72.08c0.92-2.59,2.86-5.08,1.35-8.53
		c-5.16,0.36-4.68,5.08-5.72,7.74c-6.13,15.73-12.11,31.53-17.44,47.54c-2.51,7.54-7.27,11.67-14.33,9.28
		c-7.74-2.61-5.58-9.38-3.36-15.44c6.89-18.88,13.34-37.93,20.5-56.71c4.38-11.48,12.77-19.28,25.26-21.17
		c12.53-1.89,25.23-1.7,37.77-0.15c12.21,1.51,20.28,9.22,24.68,20.27c7.44,18.68,14.23,37.62,21.4,56.4
		c2.42,6.33,4.78,13.78-2.97,16.67c-7.62,2.83-12.22-2.97-14.88-10.33c-5.75-15.87-12.01-31.56-18.04-47.32
		C167.7,101.3,167.47,98.3,161.16,95.55z"/>
	<path class="st0" d="M116.38,38.19c-0.1-12.91,10.23-23.54,22.9-23.55c12.66-0.01,22.95,10.6,22.85,23.56
		c-0.09,12.59-9.85,22.63-22.32,22.96C126.99,61.5,116.48,51.2,116.38,38.19z"/>
</g>
</svg>
